<svg width="24" height="24" viewBox="0 0 24 24" fill="none" xmlns="http://www.w3.org/2000/svg">
<path d="M11.625 20.2493H19.5312C19.7219 20.2493 19.9047 20.1735 20.0395 20.0388C20.1743 19.904 20.25 19.7211 20.25 19.5305V11.6242C20.25 10.4916 20.0269 9.37004 19.5935 8.32361C19.16 7.27718 18.5247 6.32637 17.7238 5.52547C16.9229 4.72456 15.9721 4.08925 14.9257 3.6558C13.8792 3.22236 12.7577 2.99927 11.625 2.99927H11.625C10.4923 2.99927 9.37079 3.22236 8.32436 3.65581C7.27792 4.08925 6.32711 4.72457 5.5262 5.52547C4.7253 6.32638 4.08999 7.27719 3.65654 8.32362C3.22309 9.37006 3 10.4916 3 11.6243V11.6243C3 13.9118 3.9087 16.1056 5.5262 17.7231C7.1437 19.3406 9.3375 20.2493 11.625 20.2493Z" stroke="white" stroke-linecap="round" stroke-linejoin="round"/>
<path d="M14.625 10.4993H9" stroke="white" stroke-linecap="round" stroke-linejoin="round"/>
<path d="M14.625 13.4993H9" stroke="white" stroke-linecap="round" stroke-linejoin="round"/>
</svg>
