<svg width="24" height="24" viewBox="0 0 24 24" fill="none" xmlns="http://www.w3.org/2000/svg">
<path d="M4.5 3.75L19.5 20.25" stroke="#B4B4B4" stroke-linecap="round" stroke-linejoin="round"/>
<path d="M14.5223 14.7748C13.7864 15.4437 12.8149 15.7929 11.8215 15.7456C10.8281 15.6982 9.89422 15.2582 9.22524 14.5223C8.55626 13.7865 8.20698 12.815 8.25424 11.8216C8.3015 10.8282 8.74142 9.89427 9.47724 9.22522" stroke="#B4B4B4" stroke-linecap="round" stroke-linejoin="round"/>
<path d="M6.93698 6.43066C3.11486 8.36618 1.5 12 1.5 12C1.5 12 4.5 18.7493 12 18.7493C13.7572 18.7633 15.4926 18.3585 17.0623 17.5685" stroke="#B4B4B4" stroke-linecap="round" stroke-linejoin="round"/>
<path d="M19.5566 15.8531C21.6006 14.0224 22.4995 12 22.4995 12C22.4995 12 19.4995 5.24928 11.9995 5.24928C11.3499 5.24822 10.7014 5.30103 10.0605 5.40717" stroke="#B4B4B4" stroke-linecap="round" stroke-linejoin="round"/>
<path d="M12.7051 8.31641C13.5021 8.46946 14.228 8.8768 14.774 9.47735C15.3199 10.0779 15.6564 10.8393 15.733 11.6472" stroke="#B4B4B4" stroke-linecap="round" stroke-linejoin="round"/>
</svg>
