<svg width="16" height="14" viewBox="0 0 16 14" fill="none" xmlns="http://www.w3.org/2000/svg">
<path d="M8.39775 12.898L14.0953 7.2004C15.4953 5.80045 15.7018 3.49732 14.377 2.02608C14.0451 1.6565 13.6415 1.3584 13.1906 1.14997C12.7398 0.941551 12.2512 0.827174 11.7546 0.813821C11.2581 0.800469 10.7641 0.888422 10.3026 1.07231C9.84123 1.2562 9.42213 1.53218 9.07089 1.8834L8 2.95428L7.0754 2.02968C5.67545 0.629726 3.37232 0.423185 1.90108 1.74801C1.5315 2.07986 1.2334 2.48353 1.02497 2.93439C0.816551 3.38525 0.702174 3.87386 0.688821 4.37038C0.675469 4.86691 0.763422 5.36095 0.947313 5.82236C1.1312 6.28377 1.40718 6.70288 1.7584 7.05411L7.60225 12.898C7.70774 13.0035 7.85082 13.0627 8 13.0627C8.14919 13.0627 8.29226 13.0035 8.39775 12.898Z" fill="#B4B4B4" stroke="#B4B4B4" stroke-linecap="round" stroke-linejoin="round"/>
</svg>
