<svg width="18" height="18" viewBox="0 0 18 18" fill="none" xmlns="http://www.w3.org/2000/svg">
<path d="M9.39775 14.898L15.0953 9.2004C16.4953 7.80045 16.7018 5.49732 15.377 4.02608C15.0451 3.6565 14.6415 3.3584 14.1906 3.14997C13.7398 2.94155 13.2512 2.82717 12.7546 2.81382C12.2581 2.80047 11.7641 2.88842 11.3026 3.07231C10.8412 3.2562 10.4221 3.53218 10.0709 3.8834L9 4.95428L8.0754 4.02968C6.67545 2.62973 4.37232 2.42318 2.90108 3.74801C2.5315 4.07986 2.2334 4.48353 2.02497 4.93439C1.81655 5.38525 1.70217 5.87386 1.68882 6.37038C1.67547 6.86691 1.76342 7.36095 1.94731 7.82236C2.1312 8.28377 2.40718 8.70288 2.7584 9.05411L8.60226 14.898C8.70774 15.0035 8.85082 15.0627 9 15.0627C9.14919 15.0627 9.29226 15.0035 9.39775 14.898V14.898Z" stroke="#999999" stroke-linecap="round" stroke-linejoin="round"/>
</svg>
