<svg width="24" height="24" viewBox="0 0 24 24" fill="none" xmlns="http://www.w3.org/2000/svg">
<path d="M11.9995 16.5C16.1416 16.5 19.4995 13.1421 19.4995 9C19.4995 4.85786 16.1416 1.5 11.9995 1.5C7.85738 1.5 4.49951 4.85786 4.49951 9C4.49951 13.1421 7.85738 16.5 11.9995 16.5Z" stroke="#911FEB" stroke-linecap="round" stroke-linejoin="round"/>
<path d="M11.9995 13.5C14.4848 13.5 16.4995 11.4853 16.4995 9C16.4995 6.51472 14.4848 4.5 11.9995 4.5C9.51423 4.5 7.49951 6.51472 7.49951 9C7.49951 11.4853 9.51423 13.5 11.9995 13.5Z" stroke="#911FEB" stroke-linecap="round" stroke-linejoin="round"/>
<path d="M16.5 14.9995V22.5L11.9993 20.25L7.5 22.5V15.0002" stroke="#911FEB" stroke-linecap="round" stroke-linejoin="round"/>
</svg>
