<svg width="54" height="54" viewBox="0 0 54 54" fill="none" xmlns="http://www.w3.org/2000/svg">
<path opacity="0.2" d="M43.875 10.125H10.125C9.2299 10.125 8.37146 10.4806 7.73852 11.1135C7.10559 11.7465 6.75001 12.6049 6.75 13.5V37.125C6.75001 38.0201 7.10559 38.8785 7.73852 39.5115C8.37146 40.1444 9.2299 40.5 10.125 40.5H43.875C44.7701 40.5 45.6285 40.1444 46.2615 39.5115C46.8944 38.8785 47.25 38.0201 47.25 37.125V13.5C47.25 12.6049 46.8944 11.7465 46.2615 11.1135C45.6285 10.4806 44.7701 10.125 43.875 10.125ZM23.625 32.0625V18.5625L33.75 25.3125L23.625 32.0625Z" fill="#911FEB"/>
<path d="M10.125 40.5L43.875 40.5C45.739 40.5 47.25 38.989 47.25 37.125V13.5C47.25 11.636 45.739 10.125 43.875 10.125L10.125 10.125C8.26104 10.125 6.75 11.636 6.75 13.5V37.125C6.75 38.989 8.26104 40.5 10.125 40.5Z" stroke="#911FEB" stroke-linecap="round" stroke-linejoin="round"/>
<path d="M33.75 47.25H20.25" stroke="#911FEB" stroke-linecap="round" stroke-linejoin="round"/>
<path d="M33.75 25.3125L23.625 18.5625V32.0625L33.75 25.3125Z" stroke="#911FEB" stroke-linecap="round" stroke-linejoin="round"/>
</svg>
