<svg width="24" height="24" viewBox="0 0 24 24" fill="none" xmlns="http://www.w3.org/2000/svg">
<path d="M3.50533 4.45914L8.99955 20.3313C9.05128 20.4808 9.14895 20.6101 9.27858 20.7007C9.40821 20.7913 9.56317 20.8386 9.72131 20.8359C9.87945 20.8331 10.0327 20.7805 10.1591 20.6854C10.2855 20.5903 10.3786 20.4577 10.4251 20.3066L12.6335 13.1295C12.6694 13.0126 12.7335 12.9062 12.82 12.8197C12.9065 12.7332 13.0128 12.6692 13.1297 12.6332L20.3068 10.4249C20.458 10.3784 20.5906 10.2852 20.6857 10.1588C20.7807 10.0324 20.8334 9.8792 20.8361 9.72106C20.8389 9.56292 20.7916 9.40796 20.701 9.27832C20.6103 9.14869 20.4811 9.05103 20.3316 8.99929L4.4594 3.50507C4.32639 3.45903 4.18312 3.45134 4.04595 3.48289C3.90878 3.51444 3.78326 3.58395 3.68374 3.68348C3.58421 3.783 3.5147 3.90852 3.48315 4.04569C3.4516 4.18286 3.45929 4.32613 3.50533 4.45914V4.45914Z" stroke="#1A233E" stroke-linecap="round" stroke-linejoin="round"/>
</svg>
