<svg width="18" height="18" viewBox="0 0 18 18" fill="none" xmlns="http://www.w3.org/2000/svg">
<path d="M14.7833 2.52271L1.68214 6.21791C1.57193 6.249 1.47382 6.31299 1.40094 6.40132C1.32807 6.48966 1.28389 6.59813 1.27431 6.71225C1.26473 6.82636 1.29021 6.94068 1.34735 7.03993C1.40448 7.13918 1.49055 7.21862 1.59404 7.26764L7.61355 10.119C7.73096 10.1746 7.82549 10.2691 7.88111 10.3865L10.7325 16.4061C10.7815 16.5095 10.8609 16.5956 10.9602 16.6527C11.0594 16.7099 11.1737 16.7354 11.2878 16.7258C11.402 16.7162 11.5104 16.672 11.5988 16.5991C11.6871 16.5263 11.7511 16.4282 11.7822 16.318L15.4774 3.21678C15.5045 3.12055 15.5055 3.01882 15.4803 2.92207C15.455 2.82532 15.4045 2.73704 15.3338 2.66634C15.2631 2.59564 15.1748 2.54506 15.078 2.51981C14.9813 2.49457 14.8795 2.49557 14.7833 2.52271Z" stroke="#999999" stroke-linecap="round" stroke-linejoin="round"/>
<path d="M7.79504 10.2049L10.977 7.02295" stroke="#999999" stroke-linecap="round" stroke-linejoin="round"/>
</svg>
