<svg width="54" height="54" viewBox="0 0 54 54" fill="none" xmlns="http://www.w3.org/2000/svg">
<path opacity="0.2" d="M27 37.125C32.5919 37.125 37.125 32.5919 37.125 27C37.125 21.4081 32.5919 16.875 27 16.875C21.4081 16.875 16.875 21.4081 16.875 27C16.875 32.5919 21.4081 37.125 27 37.125Z" fill="#911FEB"/>
<path d="M27 27L47.25 6.75" stroke="#911FEB" stroke-linecap="round" stroke-linejoin="round"/>
<path d="M41.3186 12.681C37.7316 9.10104 32.9314 6.99778 27.8679 6.78736C22.8044 6.57693 17.8463 8.27468 13.9746 11.5447C10.1028 14.8148 7.59948 19.4189 6.95974 24.4462C6.32 29.4736 7.59049 34.5579 10.5199 38.6934C13.4492 42.8289 17.8241 45.7143 22.7789 46.7787C27.7338 47.8432 32.9077 47.0091 37.277 44.4416C41.6464 41.8741 44.8929 37.7601 46.3744 32.9136C47.8558 28.067 47.4642 22.841 45.2771 18.2693" stroke="#911FEB" stroke-linecap="round" stroke-linejoin="round"/>
<path d="M34.1599 19.8406C32.4859 18.1667 30.2784 17.1323 27.921 16.9172C25.5635 16.702 23.2052 17.3197 21.2559 18.6629C19.3067 20.006 17.8896 21.9898 17.2512 24.2693C16.6127 26.5488 16.7932 28.98 17.7612 31.1402C18.7292 33.3005 20.4236 35.0533 22.5498 36.094C24.676 37.1346 27.0997 37.3974 29.3995 36.8365C31.6994 36.2757 33.73 34.9267 35.1384 33.024C36.5469 31.1214 37.2441 28.7854 37.109 26.422" stroke="#911FEB" stroke-linecap="round" stroke-linejoin="round"/>
</svg>
