<svg width="20" height="20" viewBox="0 0 20 20" fill="none" xmlns="http://www.w3.org/2000/svg">
<path d="M2.5 8.125H6.25V16.25H2.5C2.33424 16.25 2.17527 16.1842 2.05806 16.0669C1.94085 15.9497 1.875 15.7908 1.875 15.625V8.75C1.875 8.58424 1.94085 8.42527 2.05806 8.30806C2.17527 8.19085 2.33424 8.125 2.5 8.125V8.125Z" stroke="#911FEB" stroke-linecap="round" stroke-linejoin="round"/>
<path d="M6.25 8.125L9.375 1.875C9.7033 1.875 10.0284 1.93966 10.3317 2.0653C10.635 2.19094 10.9106 2.37509 11.1428 2.60723C11.3749 2.83938 11.5591 3.11498 11.6847 3.41829C11.8103 3.72161 11.875 4.0467 11.875 4.375V6.25H16.709C16.8863 6.25 17.0615 6.28769 17.223 6.36058C17.3846 6.43346 17.5288 6.53987 17.6461 6.67275C17.7634 6.80562 17.8511 6.96192 17.9034 7.13128C17.9557 7.30063 17.9714 7.47917 17.9494 7.65504L17.0119 15.155C16.9741 15.4574 16.8272 15.7355 16.5988 15.9371C16.3704 16.1387 16.0762 16.25 15.7715 16.25H6.25" stroke="#911FEB" stroke-linecap="round" stroke-linejoin="round"/>
</svg>
