<svg width="16" height="16" viewBox="0 0 16 16" fill="none" xmlns="http://www.w3.org/2000/svg">
<path d="M14.7833 0.522709L1.68214 4.21791C1.57193 4.249 1.47382 4.31299 1.40094 4.40132C1.32807 4.48966 1.28389 4.59813 1.27431 4.71225C1.26473 4.82636 1.29021 4.94068 1.34735 5.03993C1.40448 5.13918 1.49055 5.21862 1.59404 5.26764L7.61355 8.11899C7.73096 8.1746 7.82549 8.26914 7.88111 8.38654L10.7325 14.4061C10.7815 14.5095 10.8609 14.5956 10.9602 14.6527C11.0594 14.7099 11.1737 14.7354 11.2878 14.7258C11.402 14.7162 11.5104 14.672 11.5988 14.5991C11.6871 14.5263 11.7511 14.4282 11.7822 14.318L15.4774 1.21678C15.5045 1.12055 15.5055 1.01882 15.4803 0.922066C15.455 0.825315 15.4045 0.737043 15.3338 0.666339C15.2631 0.595636 15.1748 0.545057 15.078 0.519811C14.9813 0.494565 14.8795 0.495566 14.7833 0.522709Z" stroke="#999999" stroke-linecap="round" stroke-linejoin="round"/>
</svg>
