<svg width="318" height="38" viewBox="0 0 318 38" fill="none" xmlns="http://www.w3.org/2000/svg">
<g clip-path="url(#clip0_12_5998)">
<path d="M64.29 7.58984C70.11 7.58984 74.48 11.2998 75.3 16.8098C76.08 22.0898 73.31 27.3798 67.74 28.9798C67.36 29.0898 67.36 29.2198 67.53 29.5098C67.91 30.1498 68.47 30.6198 69.17 30.8298C69.97 31.0698 70.81 31.2098 71.64 31.2798C72.36 31.3398 73.1 31.2298 73.82 31.1698C74.06 31.1498 74.22 31.1498 74.26 31.4598C74.41 32.6498 74.58 33.8398 74.75 35.0298C74.79 35.3198 74.72 35.4698 74.41 35.5398C71.59 36.1098 68.82 36.0298 66.17 34.7798C63.88 33.6998 62.32 32.0098 61.81 29.4598C61.78 29.2998 61.59 29.1098 61.43 29.0598C57.13 27.7598 54.52 24.8798 53.75 20.4898C52.64 14.1298 56.66 8.54984 62.95 7.70984C63.46 7.63984 63.99 7.62984 64.29 7.60984V7.58984ZM59.17 18.4998C59.23 18.9798 59.25 19.4798 59.36 19.9398C59.89 22.0498 61.14 23.5198 63.32 23.9798C65.47 24.4398 67.32 23.8298 68.68 22.0398C69.6 20.8298 69.87 19.4398 69.78 17.9498C69.57 14.5698 66.51 12.2798 63.22 13.0498C60.84 13.6098 59.22 15.7998 59.18 18.4998H59.17Z" fill="#1A233E"/>
<path d="M32.12 7.59008C35.18 7.54008 37.99 8.62008 40.29 10.9801C40.54 11.2301 40.6 11.3801 40.29 11.6601C39.23 12.6201 38.19 13.6001 37.17 14.6001C36.92 14.8501 36.79 14.8001 36.56 14.5701C34.16 12.2101 30.07 12.4001 28.08 14.9501C26.29 17.2601 26.59 20.8301 28.74 22.7501C30.88 24.6601 34.43 24.5801 36.51 22.5401C36.82 22.2301 36.99 22.2101 37.3 22.5201C38.29 23.4801 39.3 24.4201 40.33 25.3501C40.61 25.6001 40.59 25.7401 40.35 26.0001C38.49 27.9401 36.25 29.1101 33.56 29.3601C33.11 29.4001 33.11 29.6601 33.03 29.9501C32.92 30.3101 33.21 30.3401 33.42 30.4401C34.64 30.9901 35.54 31.8101 35.77 33.2101C35.99 34.6001 35.33 35.9301 34.04 36.7001C32.78 37.4501 31.43 37.5301 30.03 37.2601C29.43 37.1401 28.84 36.9601 28.24 36.8101C27.93 36.7301 27.83 36.5801 27.94 36.2501C28.18 35.5301 28.41 34.8001 28.61 34.0601C28.7 33.7201 28.8 33.6601 29.17 33.7701C29.76 33.9501 30.39 34.0501 31.01 34.0801C31.41 34.1001 31.79 33.8801 31.83 33.4001C31.86 32.9201 31.5 32.6901 31.1 32.6301C30.56 32.5501 30 32.5301 29.45 32.5301C29.09 32.5301 28.95 32.4801 29.07 32.0701C29.3 31.2801 29.46 30.4601 29.67 29.6601C29.76 29.3201 29.73 29.1701 29.33 29.0601C23.65 27.5901 20.81 22.4201 21.37 17.1501C21.92 11.9901 26.11 7.75008 32.13 7.58008L32.12 7.59008Z" fill="#1A233E"/>
<path d="M17.33 28.9799C16.58 28.9799 15.83 28.9599 15.09 28.9799C14.67 28.9999 14.45 28.8899 14.33 28.4499C14.13 27.6999 13.84 26.9699 13.6 26.2299C13.52 25.9799 13.41 25.8699 13.12 25.8699C11.06 25.8799 8.99 25.8799 6.93 25.8699C6.62 25.8699 6.51 25.9899 6.42 26.2599C6.17 27.0299 5.89 27.7899 5.64 28.5599C5.55 28.8499 5.41 28.9699 5.09 28.9699C3.51 28.9499 1.94 28.9599 0.36 28.9699C0.0100004 28.9699 -0.0999997 28.9099 0.0400003 28.5399C2.68 21.7399 5.32 14.9299 7.94 8.11993C8.05 7.82993 8.21 7.72993 8.51 7.73993C9.6 7.75993 10.69 7.75993 11.78 7.73993C12.07 7.73993 12.21 7.82993 12.31 8.09993C14.87 14.8999 17.44 21.6999 20.02 28.4899C20.16 28.8499 20.12 28.9799 19.7 28.9699C18.9 28.9499 18.11 28.9699 17.31 28.9699L17.33 28.9799ZM10.02 15.7099L8.04 21.5099C9.29 21.5099 10.48 21.5099 11.66 21.5099C11.87 21.5099 11.96 21.4699 11.88 21.2299C11.27 19.4399 10.67 17.6399 10.02 15.7099Z" fill="#1A233E"/>
<path d="M49.53 18.5398C49.53 21.8398 49.53 25.1298 49.54 28.4298C49.54 28.8898 49.4 28.9998 48.97 28.9898C47.56 28.9698 46.14 28.9698 44.73 28.9898C44.34 28.9898 44.19 28.8998 44.19 28.4798C44.2 21.8398 44.2 15.1998 44.19 8.55976C44.19 8.19976 44.26 8.03976 44.67 8.04976C46.13 8.07976 47.59 8.07976 49.05 8.04976C49.46 8.04976 49.53 8.18976 49.53 8.55976C49.52 11.8898 49.53 15.2198 49.53 18.5398Z" fill="#1A233E"/>
<path d="M160.14 17.2298C160.14 17.4098 160.14 17.5798 160.14 17.7598C160.14 21.0898 160.14 24.4198 160.14 27.7498C160.14 28.1831 159.933 28.3998 159.52 28.3998C158.2 28.3998 156.89 28.3998 155.57 28.3998C155.24 28.3998 155.12 28.3198 155.12 27.9698C155.12 21.1798 155.12 14.3898 155.12 7.5998C155.12 7.2598 155.23 7.1498 155.56 7.1598C156.29 7.1798 157.02 7.1798 157.75 7.1598C158.11 7.1498 158.35 7.2598 158.59 7.5198C161.9 11.1198 165.22 14.7098 168.53 18.3098C168.65 18.4398 168.76 18.5798 168.98 18.8298C168.99 18.5198 169.01 18.3498 169.01 18.1898C169.01 14.8098 169.01 11.4298 169.01 8.0498C169.01 7.6198 169.1 7.4498 169.57 7.4598C170.89 7.4898 172.2 7.4798 173.52 7.4598C173.87 7.4598 174.03 7.5198 174.03 7.9298C174.02 14.6998 174.02 21.4798 174.03 28.2498C174.03 28.5798 173.95 28.7098 173.6 28.6998C172.84 28.6798 172.07 28.6698 171.31 28.6998C170.97 28.7098 170.77 28.5698 170.57 28.3398C167.25 24.7298 163.92 21.1298 160.59 17.5198C160.48 17.3998 160.37 17.2898 160.26 17.1698L160.15 17.2098L160.14 17.2298Z" fill="#1A233E"/>
<path d="M223.61 17.9102C223.61 14.6302 223.62 11.3502 223.6 8.07023C223.6 7.57023 223.74 7.44023 224.23 7.45023C226.73 7.50023 229.24 7.42023 231.73 7.55023C234.94 7.72023 237.53 9.94023 238.12 12.9702C238.66 15.7402 237.92 18.1202 235.64 19.9002C235.37 20.1102 235.38 20.2602 235.53 20.5302C236.88 22.9702 238.22 25.4202 239.57 27.8702C239.763 28.2169 239.66 28.3902 239.26 28.3902C237.57 28.3902 235.88 28.3902 234.19 28.3902C233.87 28.3902 233.7 28.2902 233.56 28.0002C232.55 25.9502 231.52 23.9102 230.49 21.8602C230.33 21.5302 229.26 21.2602 229.01 21.5102C228.92 21.6002 228.93 21.8102 228.93 21.9702C228.93 23.9302 228.91 25.9002 228.93 27.8602C228.93 28.3002 228.8 28.4002 228.38 28.3902C226.97 28.3702 225.55 28.3602 224.14 28.3902C223.7 28.3902 223.59 28.2602 223.6 27.8402C223.62 26.1802 223.6 24.5302 223.6 22.8702C223.6 21.2102 223.6 19.5602 223.6 17.9002L223.61 17.9102ZM228.92 14.4602C228.92 15.1602 228.92 15.8502 228.92 16.5502C228.92 16.7802 228.96 16.9202 229.23 16.9102C229.76 16.8902 230.3 16.9302 230.83 16.8802C232.04 16.7602 232.86 15.8802 232.94 14.6602C233.03 13.3602 232.35 12.3602 231.11 12.1102C230.53 11.9902 229.92 12.0502 229.32 12.0102C229.01 11.9902 228.89 12.0902 228.9 12.4202C228.92 13.1002 228.9 13.7802 228.9 14.4602H228.92Z" fill="#1A233E"/>
<path d="M133.45 14.2701C133.45 12.1701 133.45 10.0801 133.45 7.98012C133.45 7.58012 133.54 7.45012 133.96 7.45012C135.39 7.47012 136.82 7.47012 138.25 7.45012C138.65 7.45012 138.77 7.56012 138.77 7.97012C138.76 11.8701 138.75 15.7701 138.77 19.6701C138.77 20.3101 138.85 20.9801 139.04 21.5901C139.54 23.1701 140.86 23.9501 142.66 23.8201C144.13 23.7201 145.35 22.5901 145.63 21.0401C145.71 20.6101 145.74 20.1701 145.74 19.7301C145.74 15.8301 145.75 11.9301 145.74 8.03012C145.74 7.61012 145.82 7.44012 146.29 7.45012C147.67 7.48012 149.05 7.47012 150.43 7.45012C150.79 7.45012 150.94 7.52012 150.94 7.93012C150.92 12.0201 150.95 16.1201 150.92 20.2101C150.89 24.6601 148.01 28.0901 143.62 28.7301C137.59 29.6001 133.55 25.4001 133.46 20.2601C133.43 18.2601 133.46 16.2601 133.46 14.2701H133.45Z" fill="#1A233E"/>
<path d="M207.37 17.9102C207.37 14.6102 207.37 11.3202 207.36 8.0202C207.36 7.5702 207.49 7.4502 207.93 7.4502C211.67 7.4702 215.4 7.4702 219.14 7.4502C219.62 7.4502 219.74 7.6002 219.73 8.0602C219.7 9.3602 219.71 10.6602 219.73 11.9602C219.73 12.3202 219.63 12.4302 219.26 12.4302C217.23 12.4102 215.2 12.4302 213.17 12.4102C212.81 12.4102 212.68 12.5002 212.7 12.8702C212.73 13.5702 212.72 14.2702 212.7 14.9602C212.69 15.3202 212.79 15.4402 213.16 15.4302C214.51 15.4102 215.86 15.4302 217.21 15.4102C217.62 15.4102 217.78 15.4902 217.77 15.9402C217.74 17.1602 217.74 18.3802 217.77 19.5902C217.78 20.0302 217.63 20.1302 217.21 20.1202C215.86 20.0902 214.51 20.1202 213.16 20.1002C212.79 20.1002 212.69 20.2102 212.7 20.5702C212.72 21.3502 212.73 22.1302 212.7 22.9102C212.69 23.3102 212.79 23.4402 213.21 23.4302C215.24 23.4102 217.27 23.4302 219.3 23.4102C219.74 23.4102 219.89 23.5102 219.88 23.9702C219.85 25.2802 219.86 26.6002 219.88 27.9202C219.88 28.2802 219.78 28.3902 219.41 28.3902C215.56 28.3802 211.71 28.3802 207.86 28.3902C207.47 28.3902 207.37 28.2702 207.37 27.8902C207.38 24.5602 207.37 21.2302 207.37 17.9002V17.9102Z" fill="#1A233E"/>
<path d="M286.63 17.9202C286.63 14.6102 286.63 11.2902 286.63 7.9802C286.63 7.5902 286.72 7.4502 287.14 7.4502C290.91 7.4702 294.68 7.4602 298.45 7.4502C298.85 7.4502 298.98 7.5602 298.97 7.9702C298.95 9.2902 298.94 10.6002 298.97 11.9202C298.97 12.3402 298.83 12.4302 298.44 12.4302C296.43 12.4102 294.41 12.4302 292.4 12.4102C292.03 12.4102 291.92 12.5202 291.94 12.8802C291.97 13.5902 291.96 14.3102 291.94 15.0202C291.94 15.3302 292.03 15.4402 292.36 15.4402C293.76 15.4202 295.15 15.4402 296.55 15.4202C296.92 15.4202 297.02 15.5202 297.01 15.8802C296.99 17.1502 296.99 18.4102 297.01 19.6802C297.01 20.0202 296.92 20.1202 296.57 20.1202C295.17 20.1002 293.78 20.1202 292.38 20.1102C292.04 20.1102 291.93 20.2102 291.94 20.5502C291.96 21.3602 291.97 22.1702 291.94 22.9902C291.93 23.3702 292.08 23.4502 292.42 23.4402C294.48 23.4302 296.55 23.4402 298.61 23.4202C299.05 23.4202 299.15 23.5502 299.14 23.9702C299.11 25.3002 299.12 26.6302 299.14 27.9702C299.14 28.2802 299.06 28.4002 298.73 28.4002C294.83 28.4002 290.93 28.3902 287.03 28.4002C286.63 28.4002 286.64 28.2002 286.64 27.9102C286.64 24.5802 286.64 21.2502 286.64 17.9202H286.63Z" fill="#1A233E"/>
<path d="M248.28 28.99C245.11 28.96 242.6 27.73 240.86 25.02C240.64 24.67 240.67 24.49 241 24.24C241.97 23.48 242.92 22.69 243.86 21.88C244.13 21.65 244.25 21.66 244.43 21.97C245.08 23.12 245.96 24.04 247.31 24.33C248 24.48 248.7 24.49 249.37 24.21C250.52 23.71 250.74 22.49 249.79 21.67C249.43 21.36 248.98 21.13 248.56 20.89C247.17 20.09 245.69 19.41 244.39 18.49C240.89 16.01 241.37 11.48 243.32 9.31998C244.72 7.76998 246.53 7.12998 248.57 7.01998C251.51 6.86998 253.83 8.05998 255.7 10.25C255.86 10.44 255.87 10.55 255.68 10.72C254.69 11.61 253.71 12.51 252.73 13.42C252.56 13.58 252.46 13.57 252.31 13.39C251.92 12.95 251.54 12.51 251.1 12.13C250.37 11.51 249.51 11.28 248.55 11.42C247.91 11.51 247.4 11.78 247.2 12.44C247.01 13.08 247.23 13.82 247.82 14.21C248.53 14.66 249.3 15.02 250.03 15.43C251.06 16.01 252.14 16.52 253.1 17.2C256.66 19.72 256.27 24.24 254.36 26.45C252.94 28.11 251.07 28.81 248.95 28.97C248.72 28.99 248.5 28.97 248.27 28.97L248.28 28.99Z" fill="#1A233E"/>
<path d="M195.69 18.9201C196.49 16.7401 197.24 14.7001 197.99 12.6601C198.56 11.1101 199.14 9.56012 199.69 8.00012C199.83 7.61012 200 7.44012 200.45 7.45012C201.83 7.48012 203.21 7.46012 204.59 7.46012C205.22 7.46012 205.22 7.46012 205 8.04012C202.69 14.0301 200.38 20.0301 198.07 26.0201C197.77 26.7901 197.46 27.5601 197.18 28.3401C197.08 28.6201 196.93 28.7101 196.64 28.7001C195.93 28.6801 195.21 28.6701 194.5 28.7001C194.06 28.7201 193.86 28.5901 193.69 28.1601C191.24 21.6601 188.77 15.1701 186.31 8.68012C186.2 8.39012 186.1 8.10012 185.98 7.82012C185.87 7.57012 185.91 7.46012 186.2 7.46012C187.89 7.46012 189.58 7.46012 191.27 7.48012C191.41 7.48012 191.62 7.73012 191.68 7.90012C192.85 11.1001 194.01 14.3001 195.17 17.5101C195.32 17.9301 195.48 18.3601 195.69 18.9201Z" fill="#1A233E"/>
<path d="M275.55 7.47021C278.18 7.47021 280.81 7.47021 283.45 7.47021C283.87 7.47021 284.02 7.57022 284.01 8.01022C283.98 9.34022 283.99 10.6702 284.01 12.0102C284.01 12.3902 283.91 12.5202 283.52 12.5102C281.94 12.4902 280.37 12.5102 278.79 12.4902C278.34 12.4902 278.22 12.6202 278.22 13.0702C278.23 17.9102 278.23 22.7502 278.22 27.5902C278.22 28.5602 278.3 28.4002 277.38 28.4102C276.06 28.4102 274.75 28.3902 273.43 28.4202C272.95 28.4302 272.88 28.2402 272.88 27.8302C272.89 22.9302 272.88 18.0202 272.9 13.1202C272.9 12.6402 272.79 12.4802 272.29 12.4902C270.73 12.5202 269.17 12.4902 267.61 12.5102C267.23 12.5102 267.11 12.4002 267.12 12.0202C267.14 10.6902 267.15 9.36022 267.12 8.02022C267.12 7.60022 267.22 7.47021 267.66 7.47021C270.29 7.49021 272.92 7.48022 275.56 7.48022L275.55 7.47021Z" fill="#1A233E"/>
<path d="M309.57 7.47021C312.18 7.47021 314.8 7.47021 317.41 7.47021C317.84 7.47021 318.01 7.56021 318 8.03021C317.97 9.34021 317.97 10.6602 318 11.9702C318 12.4102 317.86 12.5102 317.44 12.5102C315.86 12.4902 314.29 12.5102 312.71 12.4902C312.3 12.4902 312.19 12.6202 312.19 13.0202C312.2 17.9402 312.19 22.8602 312.19 27.7802C312.19 28.2002 311.977 28.4102 311.55 28.4102C310.17 28.4102 308.79 28.3902 307.41 28.4202C306.97 28.4202 306.87 28.2902 306.87 27.8702C306.88 22.9502 306.87 18.0302 306.89 13.1102C306.89 12.6102 306.76 12.4802 306.27 12.4902C304.71 12.5202 303.15 12.4902 301.59 12.5102C301.2 12.5102 301.09 12.3802 301.1 12.0102C301.12 10.6602 301.12 9.31021 301.1 7.97021C301.1 7.58021 301.22 7.48022 301.6 7.48022C304.25 7.49022 306.89 7.48022 309.54 7.48022L309.57 7.47021Z" fill="#1A233E"/>
<path d="M264.49 17.9201C264.49 21.2301 264.49 24.5501 264.5 27.8601C264.5 28.3001 264.37 28.4101 263.95 28.4001C262.5 28.3801 261.06 28.3801 259.61 28.4001C259.24 28.4001 259.14 28.2801 259.14 27.9201C259.14 21.2601 259.14 14.6001 259.14 7.95009C259.14 7.56009 259.27 7.45009 259.64 7.46009C261.09 7.48009 262.53 7.48009 263.98 7.46009C264.4 7.46009 264.49 7.59009 264.49 7.99009C264.48 11.3001 264.49 14.6101 264.49 17.9301V17.9201Z" fill="#1A233E"/>
<path d="M178.37 17.9202C178.37 14.6202 178.37 11.3302 178.37 8.03017C178.37 7.59017 178.48 7.44017 178.94 7.45017C180.37 7.48017 181.8 7.47017 183.23 7.45017C183.59 7.45017 183.7 7.55017 183.7 7.92017C183.69 14.5802 183.69 21.2402 183.7 27.8902C183.7 28.2602 183.61 28.4002 183.22 28.3902C181.79 28.3702 180.36 28.3702 178.93 28.3902C178.51 28.3902 178.38 28.2802 178.38 27.8502C178.4 24.5402 178.38 21.2202 178.38 17.9102L178.37 17.9202Z" fill="#1A233E"/>
<path d="M261.82 0C263.37 0 264.58 1.2 264.58 2.74C264.58 4.27 263.36 5.49 261.82 5.49C260.28 5.49 259.06 4.27 259.06 2.74C259.06 1.2 260.27 0 261.82 0Z" fill="#1A233E"/>
<path d="M178.28 2.75C178.28 1.18 179.45 0.01 181.02 0C182.58 0 183.77 1.18 183.77 2.74C183.77 4.29 182.57 5.49 181.03 5.5C179.48 5.5 178.29 4.3 178.28 2.75Z" fill="#1A233E"/>
<path d="M117.09 28.8502C122.999 28.8502 127.79 24.0596 127.79 18.1502C127.79 12.2407 122.999 7.4502 117.09 7.4502C111.181 7.4502 106.39 12.2407 106.39 18.1502C106.39 24.0596 111.181 28.8502 117.09 28.8502Z" fill="#E2C2FB"/>
<path d="M107.17 12.1302C110.49 12.1302 113.19 14.8302 113.19 18.1502C113.19 21.4702 110.49 24.1702 107.17 24.1702H90.52C87.2 24.1702 84.5 21.4702 84.5 18.1502C84.5 14.8302 87.2 12.1302 90.52 12.1302H107.17ZM107.17 7.4502H90.52C84.61 7.4502 79.82 12.2402 79.82 18.1502C79.82 24.0602 84.61 28.8502 90.52 28.8502H107.17C113.08 28.8502 117.87 24.0602 117.87 18.1502C117.87 12.2402 113.08 7.4502 107.17 7.4502Z" fill="#911FEB"/>
</g>
<defs>
<clipPath id="clip0_12_5998">
<rect width="318" height="37.4" fill="white"/>
</clipPath>
</defs>
</svg>
