<svg width="49" height="22" viewBox="0 0 49 22" fill="none" xmlns="http://www.w3.org/2000/svg">
<path d="M28.17 5.1302C31.49 5.1302 34.19 7.8302 34.19 11.1502C34.19 14.4702 31.49 17.1702 28.17 17.1702H11.52C8.2 17.1702 5.5 14.4702 5.5 11.1502C5.5 7.8302 8.2 5.1302 11.52 5.1302H28.17V5.1302ZM28.17 0.450195H11.52C5.61 0.450195 0.82 5.2402 0.82 11.1502C0.82 17.0602 5.61 21.8502 11.52 21.8502H28.17C34.08 21.8502 38.87 17.0602 38.87 11.1502C38.87 5.2402 34.08 0.450195 28.17 0.450195Z" fill="#911FEB"/>
<path d="M38.09 21.8502C43.9994 21.8502 48.79 17.0596 48.79 11.1502C48.79 5.24075 43.9994 0.450195 38.09 0.450195C32.1805 0.450195 27.39 5.24075 27.39 11.1502C27.39 17.0596 32.1805 21.8502 38.09 21.8502Z" fill="#E2C2FB"/>
</svg>
