<svg width="18" height="18" viewBox="0 0 18 18" fill="none" xmlns="http://www.w3.org/2000/svg">
<path d="M6.18783 9.4832L12.5101 15.0468C12.5833 15.1112 12.6719 15.1555 12.7673 15.1753C12.8627 15.1951 12.9616 15.1898 13.0544 15.1599C13.1471 15.13 13.2305 15.0765 13.2963 15.0047C13.3622 14.9329 13.4083 14.8452 13.43 14.7502L16.0747 3.20963C16.0976 3.10985 16.0928 3.00572 16.0609 2.90847C16.0289 2.81121 15.9711 2.72452 15.8935 2.65772C15.8159 2.59093 15.7216 2.54657 15.6207 2.52943C15.5197 2.51229 15.4161 2.52301 15.3208 2.56044L2.34413 7.65841C2.23103 7.70284 2.13536 7.78269 2.07144 7.88603C2.00751 7.98936 1.97877 8.11062 1.98951 8.23165C2.00024 8.35269 2.04988 8.46699 2.131 8.55746C2.21211 8.64793 2.32034 8.7097 2.43949 8.73353L6.18783 9.4832Z" stroke="#B4B4B4" stroke-linecap="round" stroke-linejoin="round"/>
<path d="M6.1875 9.48324L15.7579 2.57129" stroke="#B4B4B4" stroke-linecap="round" stroke-linejoin="round"/>
<path d="M9.34503 12.2618L7.14775 14.4591C7.06908 14.5377 6.96885 14.5913 6.85974 14.613C6.75062 14.6347 6.63752 14.6236 6.53474 14.581C6.43196 14.5384 6.34411 14.4663 6.2823 14.3738C6.22049 14.2813 6.1875 14.1726 6.1875 14.0613V9.48315" stroke="#B4B4B4" stroke-linecap="round" stroke-linejoin="round"/>
</svg>
