<svg width="18" height="18" viewBox="0 0 18 18" fill="none" xmlns="http://www.w3.org/2000/svg">
<g clip-path="url(#clip0_9_1321)">
<path d="M8.55948 0.00931016C3.76698 0.235742 -0.0147693 4.19485 -0.000447739 8.95292C0.00181061 10.3529 0.337424 11.7326 0.979058 12.9796L0.0242894 17.5801C0.0123144 17.6373 0.0150484 17.6965 0.0322391 17.7523C0.0494299 17.8081 0.0805231 17.8588 0.122648 17.8995C0.164772 17.9403 0.21657 17.9698 0.273258 17.9855C0.329945 18.0011 0.389696 18.0024 0.446991 17.9891L4.99212 16.9211C6.19456 17.515 7.51622 17.8332 8.85937 17.8522C13.7578 17.9267 17.8429 14.0683 17.9948 9.21164C18.1584 4.00544 13.8268 -0.239506 8.55948 0.00931016ZM13.9843 13.8707C12.94 14.9059 11.5944 15.5897 10.1374 15.8259C8.68035 16.0621 7.18533 15.8387 5.86313 15.1871L5.22995 14.8746L2.44333 15.5293L3.02964 12.705L2.71804 12.0993C2.04369 10.7836 1.80613 9.29006 2.03936 7.83234C2.27258 6.37463 2.96464 5.02743 4.01652 3.98348C5.3381 2.67258 7.13055 1.93613 8.99955 1.93613C10.8685 1.93613 12.661 2.67258 13.9826 3.98348C15.3041 5.29438 16.0466 7.07234 16.0466 8.92623C16.0466 10.7801 15.3041 12.5581 13.9826 13.869L13.9843 13.8707Z" fill="#1A233E"/>
<path d="M13.3676 10.8631L11.6243 10.3668C11.5118 10.3349 11.3928 10.3337 11.2797 10.3632C11.1666 10.3928 11.0636 10.452 10.9815 10.5347L10.5549 10.9651C10.4672 11.0542 10.3548 11.1155 10.232 11.1412C10.1092 11.167 9.98144 11.156 9.86489 11.1098C9.04031 10.7788 7.30437 9.24884 6.86214 8.48388C6.8003 8.37543 6.77221 8.25126 6.7814 8.127C6.79059 8.00275 6.83665 7.88397 6.91378 7.78564L7.28614 7.30824C7.35755 7.2163 7.40265 7.10696 7.4167 6.99174C7.43075 6.87652 7.41324 6.75967 7.366 6.65349L6.63256 5.00777C6.59143 4.91608 6.52931 4.83516 6.45115 4.77144C6.37298 4.70772 6.28092 4.66294 6.18227 4.64067C6.08361 4.6184 5.98108 4.61925 5.88282 4.64314C5.78455 4.66704 5.69325 4.71332 5.61616 4.77832C5.12967 5.18642 4.55246 5.80674 4.48216 6.49378C4.35847 7.70514 4.88229 9.23248 6.86344 11.0663C9.15185 13.1851 10.9841 13.4649 12.1776 13.1782C12.8542 13.0155 13.3928 12.3638 13.7365 11.83C13.7907 11.7453 13.8244 11.6493 13.8347 11.5495C13.845 11.4496 13.8318 11.3488 13.796 11.255C13.7602 11.1611 13.7028 11.0769 13.6284 11.0089C13.5541 10.9408 13.4648 10.8909 13.3676 10.8631Z" fill="#1A233E"/>
</g>
<defs>
<clipPath id="clip0_9_1321">
<rect width="18" height="18" fill="white"/>
</clipPath>
</defs>
</svg>
